# xmcd
#
# Track frame offsets:
#	150
#	19975
#	38775
#	59300
#	75100
#	93100
#	110175
#	132900
#	150450
#	172500
#	193550
#	212275
#	230750
#	251175
#	268475
#	284500
#	304900
#	323550
#
# Disc length: 4581 seconds
#
# Revision: 18
# Processed by: cddbd v1.5.2PL0 Copyright (c) Steve Scherf et al.
# Submitted via: audiograbber 1.83.01
#
DISCID=f111e312
DTITLE=Various Artist - Kuschelrock 13 CD 1
DYEAR=1999
DGENRE=Pop
TTITLE0=Aerosmith - I Don't Want To Miss A Thing
TTITLE1=Celine Dion - Immortality
TTITLE2=Boyzone - No Matter What
TTITLE3=In-Mood feat. Juliette - The Last Unicorn
TTITLE4=Andru Donalds - All Out Of Love
TTITLE5=Jennifer Lopez - If You Had My Love
TTITLE6=Lighthouse Family - High
TTITLE7=Mariah Carey - I Still Believe
TTITLE8=Ricky Martin - She's All I Ever Had
TTITLE9=Roxette - Wish I Could Fly
TTITLE10=R.E.M. - Nightswimming
TTITLE11=Britney Spears - Sometimes
TTITLE12=Phil Collins - True Colours
TTITLE13=Michael Bolton - When A Man Loves A Woman
TTITLE14=Shania Twain - You're Still The One
TTITLE15=Eric Clapton - Tears In Heaven
TTITLE16=Loona - Hijo De La Luna
TTITLE17=Xavier Naidoo - Sie sieht mich nicht
EXTD=
EXTT0=
EXTT1=
EXTT2=
EXTT3=
EXTT4=
EXTT5=
EXTT6=
EXTT7=
EXTT8=
EXTT9=
EXTT10=
EXTT11=
EXTT12=
EXTT13=
EXTT14=
EXTT15=
EXTT16=
EXTT17=
PLAYORDER=
